<svg width="200" height="200" viewBox="0 0 200 200" xmlns="http://www.w3.org/2000/svg">
  <defs>
    <!-- Background gradient: A softer, more sophisticated blue palette -->
    <linearGradient id="modernBlueBg" x1="0%" y1="0%" x2="100%" y2="100%">
      <stop offset="0%" stop-color="#3A7BD5" /> <!-- Medium-dark blue -->
      <stop offset="100%" stop-color="#0062E6" /> <!-- Vibrant blue -->
    </linearGradient>

    <!-- Gradient for the "paper" element to give it depth -->
    <linearGradient id="paperGradient" x1="0%" y1="0%" x2="100%" y2="100%">
      <stop offset="0%" stop-color="#E0E0E0" /> <!-- Light grey -->
      <stop offset="100%" stop-color="#F5F5F5" /> <!-- Slightly lighter grey -->
    </linearGradient>

    <!-- A more pronounced but still soft shadow for depth -->
    <filter id="softShadow" x="-50%" y="-50%" width="200%" height="200%">
      <feGaussianBlur in="SourceAlpha" stdDeviation="8"/>
      <feOffset dx="4" dy="6" result="shadow"/>
      <feFlood flood-color="#000" flood-opacity="0.2"/>
      <feComposite in2="shadow" operator="in"/>
      <feMerge>
        <feMergeNode/>
        <feMergeNode in="SourceGraphic"/>
      </feMerge>
    </filter>
  </defs>

  <!-- Main background shape with the new blue gradient and a soft shadow -->
  <rect x="0" y="0" width="200" height="200" rx="40" ry="40" fill="url(#modernBlueBg)" style="filter:url(#softShadow);"/>

  <!-- The "paper" element, slightly angled, with its own gradient -->
  <rect x="45" y="45" width="110" height="110" rx="15" ry="15" fill="url(#paperGradient)" transform="rotate(-5 100 100)"/>

  <!-- Lines on the "paper" representing tasks -->
  <rect x="55" y="70" width="80" height="6" rx="2" ry="2" fill="#757575"/>
  <rect x="55" y="85" width="70" height="6" rx="2" ry="2" fill="#757575"/>
  <rect x="55" y="100" width="85" height="6" rx="2" ry="2" fill="#757575"/>

  <!-- The checkmark, bolder and distinct, with a subtle white gradient for highlight -->
  <linearGradient id="checkmarkGradient" x1="0%" y1="0%" x2="100%" y2="100%">
    <stop offset="0%" stop-color="#4CAF50" /> <!-- Green -->
    <stop offset="100%" stop-color="#8BC34A" /> <!-- Lighter green -->
  </linearGradient>
  <path d="M70 120 L95 145 L145 100" stroke="url(#checkmarkGradient)" stroke-width="12" fill="none" stroke-linecap="round" stroke-linejoin="round" transform="rotate(-5 100 100)"/>

</svg> 